<mxfile host="Electron" modified="2023-11-25T17:02:25.106Z" agent="Mozilla/5.0 (Windows NT 10.0; Win64; x64) AppleWebKit/537.36 (KHTML, like Gecko) draw.io/22.1.2 Chrome/114.0.5735.289 Electron/25.9.4 Safari/537.36" etag="qViiJkoA8irQSns4rWXO" version="22.1.2" type="device">
  <diagram name="Page-1" id="uQS9ek2D7PSYEIglThoV">
    <mxGraphModel dx="1418" dy="1989" grid="1" gridSize="10" guides="1" tooltips="1" connect="1" arrows="1" fold="1" page="1" pageScale="1" pageWidth="827" pageHeight="1169" math="0" shadow="0">
      <root>
        <mxCell id="0" />
        <mxCell id="1" parent="0" />
        <mxCell id="xGLVZvJScgZVIf4xpDQf-2" value="ALT" style="shape=umlFrame;whiteSpace=wrap;html=1;pointerEvents=0;recursiveResize=0;container=1;collapsible=0;width=70;height=30;" parent="1" vertex="1">
          <mxGeometry x="790" y="-950" width="810" height="200" as="geometry" />
        </mxCell>
        <mxCell id="xGLVZvJScgZVIf4xpDQf-3" value="[пользователь&lt;br&gt;авторизован]" style="text;html=1;align=center;verticalAlign=middle;resizable=0;points=[];autosize=1;strokeColor=none;fillColor=none;" parent="xGLVZvJScgZVIf4xpDQf-2" vertex="1">
          <mxGeometry x="20" y="23" width="100" height="40" as="geometry" />
        </mxCell>
        <mxCell id="xGLVZvJScgZVIf4xpDQf-9" value="Пользователь найден" style="text;html=1;align=center;verticalAlign=middle;resizable=0;points=[];autosize=1;strokeColor=none;fillColor=none;" parent="xGLVZvJScgZVIf4xpDQf-2" vertex="1">
          <mxGeometry x="360" width="150" height="30" as="geometry" />
        </mxCell>
        <mxCell id="xGLVZvJScgZVIf4xpDQf-42" value="" style="html=1;verticalAlign=bottom;labelBackgroundColor=none;endArrow=open;endFill=0;dashed=1;rounded=0;" parent="xGLVZvJScgZVIf4xpDQf-2" edge="1">
          <mxGeometry width="160" relative="1" as="geometry">
            <mxPoint x="552" y="100" as="sourcePoint" />
            <mxPoint x="338" y="100" as="targetPoint" />
          </mxGeometry>
        </mxCell>
        <mxCell id="xGLVZvJScgZVIf4xpDQf-10" value="Авторизация пройдена" style="text;html=1;align=center;verticalAlign=middle;resizable=0;points=[];autosize=1;strokeColor=none;fillColor=none;" parent="xGLVZvJScgZVIf4xpDQf-2" vertex="1">
          <mxGeometry x="160" y="20" width="150" height="30" as="geometry" />
        </mxCell>
        <mxCell id="xGLVZvJScgZVIf4xpDQf-8" value="" style="html=1;verticalAlign=bottom;labelBackgroundColor=none;endArrow=open;endFill=0;dashed=1;rounded=0;" parent="xGLVZvJScgZVIf4xpDQf-2" edge="1">
          <mxGeometry width="160" relative="1" as="geometry">
            <mxPoint x="337.25" y="42.5" as="sourcePoint" />
            <mxPoint x="132.75" y="42.5" as="targetPoint" />
          </mxGeometry>
        </mxCell>
        <mxCell id="xGLVZvJScgZVIf4xpDQf-7" value="" style="html=1;verticalAlign=bottom;labelBackgroundColor=none;endArrow=open;endFill=0;dashed=1;rounded=0;" parent="xGLVZvJScgZVIf4xpDQf-2" edge="1">
          <mxGeometry width="160" relative="1" as="geometry">
            <mxPoint x="550" y="23" as="sourcePoint" />
            <mxPoint x="335.5" y="23" as="targetPoint" />
            <Array as="points">
              <mxPoint x="420" y="23" />
            </Array>
          </mxGeometry>
        </mxCell>
        <mxCell id="xGLVZvJScgZVIf4xpDQf-14" value="Авторизация не пройдена" style="text;html=1;align=center;verticalAlign=middle;resizable=0;points=[];autosize=1;strokeColor=none;fillColor=none;" parent="xGLVZvJScgZVIf4xpDQf-2" vertex="1">
          <mxGeometry x="140" y="100" width="170" height="30" as="geometry" />
        </mxCell>
        <mxCell id="xGLVZvJScgZVIf4xpDQf-43" value="Введены неверные логин/пароль" style="text;html=1;align=center;verticalAlign=middle;resizable=0;points=[];autosize=1;strokeColor=none;fillColor=none;" parent="xGLVZvJScgZVIf4xpDQf-2" vertex="1">
          <mxGeometry x="330" y="70" width="210" height="30" as="geometry" />
        </mxCell>
        <mxCell id="xGLVZvJScgZVIf4xpDQf-12" value="" style="html=1;verticalAlign=bottom;labelBackgroundColor=none;endArrow=open;endFill=0;dashed=1;rounded=0;" parent="xGLVZvJScgZVIf4xpDQf-2" edge="1">
          <mxGeometry width="160" relative="1" as="geometry">
            <mxPoint x="337" y="120" as="sourcePoint" />
            <mxPoint x="133" y="120" as="targetPoint" />
          </mxGeometry>
        </mxCell>
        <mxCell id="xGLVZvJScgZVIf4xpDQf-13" value="Пользователь не найден" style="text;html=1;align=center;verticalAlign=middle;resizable=0;points=[];autosize=1;strokeColor=none;fillColor=none;" parent="xGLVZvJScgZVIf4xpDQf-2" vertex="1">
          <mxGeometry x="350" y="130" width="160" height="30" as="geometry" />
        </mxCell>
        <mxCell id="xGLVZvJScgZVIf4xpDQf-11" value="" style="html=1;verticalAlign=bottom;labelBackgroundColor=none;endArrow=open;endFill=0;dashed=1;rounded=0;" parent="xGLVZvJScgZVIf4xpDQf-2" edge="1">
          <mxGeometry width="160" relative="1" as="geometry">
            <mxPoint x="554" y="150" as="sourcePoint" />
            <mxPoint x="340" y="150" as="targetPoint" />
          </mxGeometry>
        </mxCell>
        <mxCell id="I0qwWz0K_f3R_PIbQ74B-5" value="" style="html=1;verticalAlign=bottom;labelBackgroundColor=none;endArrow=open;endFill=0;dashed=1;rounded=0;" parent="xGLVZvJScgZVIf4xpDQf-2" edge="1">
          <mxGeometry width="160" relative="1" as="geometry">
            <mxPoint x="337" y="170" as="sourcePoint" />
            <mxPoint x="133" y="170" as="targetPoint" />
          </mxGeometry>
        </mxCell>
        <mxCell id="I0qwWz0K_f3R_PIbQ74B-6" value="Авторизация не пройдена" style="text;html=1;align=center;verticalAlign=middle;resizable=0;points=[];autosize=1;strokeColor=none;fillColor=none;" parent="xGLVZvJScgZVIf4xpDQf-2" vertex="1">
          <mxGeometry x="150" y="150" width="170" height="30" as="geometry" />
        </mxCell>
        <mxCell id="zd0dRC9yfDdlV3mLB25J-2" value="&lt;h1 style=&quot;font-size: 20px;&quot;&gt;&lt;font style=&quot;font-size: 20px;&quot;&gt;Заметка для ревьюера&lt;/font&gt;&lt;/h1&gt;&lt;p style=&quot;font-size: 20px;&quot;&gt;&lt;font style=&quot;font-size: 20px;&quot;&gt;Текст заметки&lt;/font&gt;&lt;/p&gt;" style="text;html=1;strokeColor=#d6b656;fillColor=#fff2cc;spacing=5;spacingTop=-20;whiteSpace=wrap;overflow=hidden;rounded=0;fontSize=20;" parent="1" vertex="1">
          <mxGeometry x="70" y="-210" width="370" height="170" as="geometry" />
        </mxCell>
        <mxCell id="zd0dRC9yfDdlV3mLB25J-3" value="&lt;h1 style=&quot;font-size: 20px;&quot;&gt;&lt;font style=&quot;font-size: 20px;&quot;&gt;Заметка для ревьюера&lt;/font&gt;&lt;/h1&gt;&lt;p style=&quot;font-size: 20px;&quot;&gt;&lt;font style=&quot;font-size: 20px;&quot;&gt;Текст заметки&lt;/font&gt;&lt;/p&gt;" style="text;html=1;strokeColor=#d6b656;fillColor=#fff2cc;spacing=5;spacingTop=-20;whiteSpace=wrap;overflow=hidden;rounded=0;fontSize=20;" parent="1" vertex="1">
          <mxGeometry x="80" y="-200" width="370" height="170" as="geometry" />
        </mxCell>
        <mxCell id="zd0dRC9yfDdlV3mLB25J-4" value="&lt;h1 style=&quot;font-size: 20px;&quot;&gt;&lt;font style=&quot;font-size: 20px;&quot;&gt;Заметка для ревьюера&lt;/font&gt;&lt;/h1&gt;&lt;p style=&quot;font-size: 20px;&quot;&gt;&lt;font style=&quot;font-size: 20px;&quot;&gt;Текст заметки&lt;/font&gt;&lt;/p&gt;" style="text;html=1;strokeColor=#d6b656;fillColor=#fff2cc;spacing=5;spacingTop=-20;whiteSpace=wrap;overflow=hidden;rounded=0;fontSize=20;" parent="1" vertex="1">
          <mxGeometry x="90" y="-190" width="370" height="170" as="geometry" />
        </mxCell>
        <mxCell id="zd0dRC9yfDdlV3mLB25J-5" value="&lt;h1 style=&quot;font-size: 20px;&quot;&gt;&lt;font style=&quot;font-size: 20px;&quot;&gt;Заметка для ревьюера&lt;/font&gt;&lt;/h1&gt;&lt;p style=&quot;font-size: 20px;&quot;&gt;&lt;font style=&quot;font-size: 20px;&quot;&gt;Текст заметки&lt;/font&gt;&lt;/p&gt;" style="text;html=1;strokeColor=#d6b656;fillColor=#fff2cc;spacing=5;spacingTop=-20;whiteSpace=wrap;overflow=hidden;rounded=0;fontSize=20;" parent="1" vertex="1">
          <mxGeometry x="100" y="-180" width="370" height="170" as="geometry" />
        </mxCell>
        <mxCell id="zd0dRC9yfDdlV3mLB25J-6" value="&lt;h1 style=&quot;font-size: 20px;&quot;&gt;&lt;font style=&quot;font-size: 20px;&quot;&gt;Заметка для ревьюера&lt;/font&gt;&lt;/h1&gt;&lt;p style=&quot;font-size: 20px;&quot;&gt;&lt;font style=&quot;font-size: 20px;&quot;&gt;Текст заметки&lt;/font&gt;&lt;/p&gt;" style="text;html=1;strokeColor=#d6b656;fillColor=#fff2cc;spacing=5;spacingTop=-20;whiteSpace=wrap;overflow=hidden;rounded=0;fontSize=20;" parent="1" vertex="1">
          <mxGeometry x="110" y="-170" width="370" height="170" as="geometry" />
        </mxCell>
        <mxCell id="oFbbETFREsKXqKu5l48W-1" style="edgeStyle=none;rounded=0;orthogonalLoop=1;jettySize=auto;html=1;endArrow=blockThin;endFill=1;" parent="1" source="oFbbETFREsKXqKu5l48W-3" edge="1">
          <mxGeometry relative="1" as="geometry">
            <mxPoint x="1119.9999999999998" y="-988" as="targetPoint" />
            <Array as="points">
              <mxPoint x="1049" y="-988" />
            </Array>
          </mxGeometry>
        </mxCell>
        <mxCell id="oFbbETFREsKXqKu5l48W-2" value="авторизация(логин, пароль)" style="edgeLabel;html=1;align=center;verticalAlign=middle;resizable=0;points=[];" parent="oFbbETFREsKXqKu5l48W-1" vertex="1" connectable="0">
          <mxGeometry x="0.0631" y="-3" relative="1" as="geometry">
            <mxPoint x="-7" y="-4" as="offset" />
          </mxGeometry>
        </mxCell>
        <mxCell id="oFbbETFREsKXqKu5l48W-5" style="edgeStyle=none;rounded=0;orthogonalLoop=1;jettySize=auto;html=1;endArrow=blockThin;endFill=1;" parent="1" source="oFbbETFREsKXqKu5l48W-7" edge="1">
          <mxGeometry relative="1" as="geometry">
            <mxPoint x="1334.9999999999998" y="-962" as="targetPoint" />
            <Array as="points">
              <mxPoint x="1289" y="-963" />
            </Array>
          </mxGeometry>
        </mxCell>
        <mxCell id="oFbbETFREsKXqKu5l48W-6" value="авторизация(логин, пароль)" style="edgeLabel;html=1;align=center;verticalAlign=middle;resizable=0;points=[];" parent="oFbbETFREsKXqKu5l48W-5" vertex="1" connectable="0">
          <mxGeometry x="0.0981" y="-1" relative="1" as="geometry">
            <mxPoint x="-8" y="-3" as="offset" />
          </mxGeometry>
        </mxCell>
        <mxCell id="oFbbETFREsKXqKu5l48W-9" value="&lt;h1 style=&quot;font-size: 30px;&quot;&gt;&lt;span style=&quot;font-size: 30px;&quot;&gt;Диаграмма&amp;nbsp;последовательности&lt;/span&gt;&lt;/h1&gt;" style="text;html=1;strokeColor=#FF8000;fillColor=#FFE6CC;spacing=5;spacingTop=-20;whiteSpace=wrap;overflow=hidden;rounded=0;fontSize=30;align=center;" parent="1" vertex="1">
          <mxGeometry x="880" y="-1150" width="710" height="60" as="geometry" />
        </mxCell>
        <mxCell id="oFbbETFREsKXqKu5l48W-11" value="&lt;h1&gt;&lt;font style=&quot;font-size: 40px;&quot;&gt;Задание&lt;/font&gt;&lt;/h1&gt;&lt;p style=&quot;font-size: 20px;&quot;&gt;&lt;font style=&quot;font-size: 20px;&quot;&gt;Составьте диаграмму последовательности в нотации.&lt;/font&gt;&lt;/p&gt;&lt;p style=&quot;font-size: 20px;&quot;&gt;&lt;font style=&quot;font-size: 20px;&quot;&gt;1. Проанализируйте существующее API, которое включает в себя следующий сценарий: авторизация пользователя для доступа к медиатеке, просмотр медиатеки фильмов и получении информации о нужном фильме и работе пользователя с избранными фильмами.&amp;nbsp;&lt;/font&gt;&lt;/p&gt;&lt;p style=&quot;font-size: 20px;&quot;&gt;&lt;font style=&quot;font-size: 20px;&quot;&gt;2. Вам необходимо построить диаграмму последовательностях для телеканалов по аналогии с сценарием взаимодействия пользователя с фильмами. Справа вы видите начало диаграммы, где уже выделен актор, объекты и обозначены несколько сообщений.&lt;/font&gt;&lt;/p&gt;&lt;p style=&quot;font-size: 20px;&quot;&gt;&lt;font style=&quot;font-size: 20px;&quot;&gt;3. Добавьте на диаграмму следующие действия, которые может выполнить пользователь:&amp;nbsp;&lt;/font&gt;&lt;/p&gt;&lt;ul style=&quot;font-size: 18px;&quot;&gt;&lt;li&gt;авторизоваться в системе&lt;/li&gt;&lt;li&gt;познакомиться с библиотекой телеканалов&lt;/li&gt;&lt;li&gt;прочитать подробную информацию о телеканале&lt;/li&gt;&lt;li&gt;добавить в избранное телеканал (это действие возможно выполнить только с детальной страницы).&lt;/li&gt;&lt;li&gt;посмотреть список избранных телеканалов&lt;/li&gt;&lt;li&gt;удалить телеканал из списка избранного&lt;/li&gt;&lt;/ul&gt;&lt;p style=&quot;font-size: 20px;&quot;&gt;&lt;font style=&quot;font-size: 20px;&quot;&gt;&amp;nbsp;Не забудьте отметить фокус управления.&lt;/font&gt;&lt;/p&gt;&lt;p style=&quot;font-size: 20px;&quot;&gt;&lt;font style=&quot;font-size: 20px;&quot;&gt;4.Если вам не хватает информации в задании, то вы можете ее самостоятельно добавить в виде допущения.&lt;/font&gt;&lt;/p&gt;&lt;p style=&quot;font-size: 20px;&quot;&gt;&lt;i&gt;&lt;font style=&quot;font-size: 20px;&quot;&gt;Помните, что вы всегда можете оставить дополнительную информацию со своими размышлениями ревьюеру в виде пометок. Просто возьмите одну из карточек ниже.&amp;nbsp;&lt;/font&gt;&lt;/i&gt;&lt;/p&gt;&lt;p style=&quot;font-size: 20px;&quot;&gt;&lt;font style=&quot;font-size: 20px;&quot;&gt;5. Когда диаграмма последовательности будет готова, сохраните полученный файл в формате .drawio.&lt;/font&gt;&lt;/p&gt;" style="text;html=1;strokeColor=#82b366;fillColor=#d5e8d4;spacing=5;spacingTop=-20;whiteSpace=wrap;overflow=hidden;rounded=0;fontSize=16;" parent="1" vertex="1">
          <mxGeometry x="70" y="-1130" width="600" height="910" as="geometry" />
        </mxCell>
        <mxCell id="xGLVZvJScgZVIf4xpDQf-15" value="ALT" style="shape=umlFrame;whiteSpace=wrap;html=1;pointerEvents=0;recursiveResize=0;container=1;collapsible=0;width=70;height=30;" parent="1" vertex="1">
          <mxGeometry x="790" y="-660" width="810" height="140" as="geometry" />
        </mxCell>
        <mxCell id="xGLVZvJScgZVIf4xpDQf-16" value="[доступ к фильмам&lt;br&gt;открыт]" style="text;html=1;align=center;verticalAlign=middle;resizable=0;points=[];autosize=1;strokeColor=none;fillColor=none;" parent="xGLVZvJScgZVIf4xpDQf-15" vertex="1">
          <mxGeometry x="5" y="28" width="130" height="40" as="geometry" />
        </mxCell>
        <mxCell id="I0qwWz0K_f3R_PIbQ74B-31" value="[иначе]" style="text;html=1;align=center;verticalAlign=middle;resizable=0;points=[];autosize=1;strokeColor=none;fillColor=none;" parent="xGLVZvJScgZVIf4xpDQf-15" vertex="1">
          <mxGeometry x="37" y="88" width="60" height="30" as="geometry" />
        </mxCell>
        <mxCell id="xGLVZvJScgZVIf4xpDQf-24" value="" style="html=1;verticalAlign=bottom;labelBackgroundColor=none;endArrow=open;endFill=0;dashed=1;rounded=0;" parent="1" edge="1">
          <mxGeometry width="160" relative="1" as="geometry">
            <mxPoint x="1342" y="-640" as="sourcePoint" />
            <mxPoint x="1128" y="-640" as="targetPoint" />
          </mxGeometry>
        </mxCell>
        <mxCell id="xGLVZvJScgZVIf4xpDQf-25" value="" style="html=1;verticalAlign=bottom;labelBackgroundColor=none;endArrow=open;endFill=0;dashed=1;rounded=0;" parent="1" edge="1">
          <mxGeometry width="160" relative="1" as="geometry">
            <mxPoint x="1120" y="-610" as="sourcePoint" />
            <mxPoint x="920" y="-610" as="targetPoint" />
          </mxGeometry>
        </mxCell>
        <mxCell id="xGLVZvJScgZVIf4xpDQf-27" value="Подписка активна" style="edgeLabel;html=1;align=center;verticalAlign=middle;resizable=0;points=[];" parent="xGLVZvJScgZVIf4xpDQf-25" vertex="1" connectable="0">
          <mxGeometry x="-0.02" y="-4" relative="1" as="geometry">
            <mxPoint as="offset" />
          </mxGeometry>
        </mxCell>
        <mxCell id="xGLVZvJScgZVIf4xpDQf-26" value="Подписка оплачена" style="text;html=1;align=center;verticalAlign=middle;resizable=0;points=[];autosize=1;strokeColor=none;fillColor=none;" parent="1" vertex="1">
          <mxGeometry x="1170" y="-662" width="130" height="30" as="geometry" />
        </mxCell>
        <mxCell id="xGLVZvJScgZVIf4xpDQf-28" value="" style="html=1;verticalAlign=bottom;labelBackgroundColor=none;endArrow=open;endFill=0;dashed=1;rounded=0;" parent="1" edge="1">
          <mxGeometry width="160" relative="1" as="geometry">
            <mxPoint x="1344" y="-570" as="sourcePoint" />
            <mxPoint x="1130" y="-570" as="targetPoint" />
          </mxGeometry>
        </mxCell>
        <mxCell id="xGLVZvJScgZVIf4xpDQf-29" value="Подписка не оплачена" style="edgeLabel;html=1;align=center;verticalAlign=middle;resizable=0;points=[];" parent="xGLVZvJScgZVIf4xpDQf-28" vertex="1" connectable="0">
          <mxGeometry x="-0.028" y="-7" relative="1" as="geometry">
            <mxPoint as="offset" />
          </mxGeometry>
        </mxCell>
        <mxCell id="xGLVZvJScgZVIf4xpDQf-33" style="edgeStyle=none;rounded=0;orthogonalLoop=1;jettySize=auto;html=1;endArrow=blockThin;endFill=1;" parent="1" edge="1">
          <mxGeometry relative="1" as="geometry">
            <mxPoint x="1119.9999999999998" y="-460" as="targetPoint" />
            <Array as="points">
              <mxPoint x="1049" y="-460" />
            </Array>
            <mxPoint x="920" y="-460" as="sourcePoint" />
          </mxGeometry>
        </mxCell>
        <mxCell id="xGLVZvJScgZVIf4xpDQf-34" value="Запрос инфо о канале" style="edgeLabel;html=1;align=center;verticalAlign=middle;resizable=0;points=[];" parent="xGLVZvJScgZVIf4xpDQf-33" vertex="1" connectable="0">
          <mxGeometry x="0.0631" y="-3" relative="1" as="geometry">
            <mxPoint x="-7" y="-4" as="offset" />
          </mxGeometry>
        </mxCell>
        <mxCell id="xGLVZvJScgZVIf4xpDQf-36" style="edgeStyle=none;rounded=0;orthogonalLoop=1;jettySize=auto;html=1;endArrow=blockThin;endFill=1;" parent="1" target="oFbbETFREsKXqKu5l48W-4" edge="1">
          <mxGeometry relative="1" as="geometry">
            <mxPoint x="1329.9999999999998" y="-420" as="targetPoint" />
            <Array as="points">
              <mxPoint x="1259" y="-420" />
            </Array>
            <mxPoint x="1130" y="-420" as="sourcePoint" />
          </mxGeometry>
        </mxCell>
        <mxCell id="xGLVZvJScgZVIf4xpDQf-37" value="Запрос инфо о канале" style="edgeLabel;html=1;align=center;verticalAlign=middle;resizable=0;points=[];" parent="xGLVZvJScgZVIf4xpDQf-36" vertex="1" connectable="0">
          <mxGeometry x="0.0631" y="-3" relative="1" as="geometry">
            <mxPoint x="-102" y="-4" as="offset" />
          </mxGeometry>
        </mxCell>
        <mxCell id="xGLVZvJScgZVIf4xpDQf-38" value="" style="html=1;verticalAlign=bottom;labelBackgroundColor=none;endArrow=open;endFill=0;dashed=1;rounded=0;entryX=1.4;entryY=0.653;entryDx=0;entryDy=0;entryPerimeter=0;" parent="1" target="I0qwWz0K_f3R_PIbQ74B-22" edge="1">
          <mxGeometry width="160" relative="1" as="geometry">
            <mxPoint x="1554" y="-370" as="sourcePoint" />
            <mxPoint x="1340" y="-370" as="targetPoint" />
          </mxGeometry>
        </mxCell>
        <mxCell id="xGLVZvJScgZVIf4xpDQf-39" value="Инфо о канале" style="text;html=1;align=center;verticalAlign=middle;resizable=0;points=[];autosize=1;strokeColor=none;fillColor=none;" parent="1" vertex="1">
          <mxGeometry x="1370" y="-392" width="110" height="30" as="geometry" />
        </mxCell>
        <mxCell id="xGLVZvJScgZVIf4xpDQf-44" style="edgeStyle=none;rounded=0;orthogonalLoop=1;jettySize=auto;html=1;endArrow=blockThin;endFill=1;" parent="1" target="oFbbETFREsKXqKu5l48W-7" edge="1">
          <mxGeometry relative="1" as="geometry">
            <mxPoint x="1119.9999999999998" y="-210" as="targetPoint" />
            <Array as="points">
              <mxPoint x="1049" y="-210" />
            </Array>
            <mxPoint x="920" y="-210" as="sourcePoint" />
          </mxGeometry>
        </mxCell>
        <mxCell id="xGLVZvJScgZVIf4xpDQf-45" value="Добавление канала в избранное" style="edgeLabel;html=1;align=center;verticalAlign=middle;resizable=0;points=[];" parent="xGLVZvJScgZVIf4xpDQf-44" vertex="1" connectable="0">
          <mxGeometry x="0.0631" y="-3" relative="1" as="geometry">
            <mxPoint x="-7" y="-4" as="offset" />
          </mxGeometry>
        </mxCell>
        <mxCell id="xGLVZvJScgZVIf4xpDQf-48" style="edgeStyle=none;rounded=0;orthogonalLoop=1;jettySize=auto;html=1;endArrow=blockThin;endFill=1;" parent="1" edge="1">
          <mxGeometry relative="1" as="geometry">
            <mxPoint x="1119.9999999999998" y="-80" as="targetPoint" />
            <Array as="points">
              <mxPoint x="1049" y="-80" />
            </Array>
            <mxPoint x="920" y="-80" as="sourcePoint" />
          </mxGeometry>
        </mxCell>
        <mxCell id="xGLVZvJScgZVIf4xpDQf-49" value="Запрос списка избранных каналов" style="edgeLabel;html=1;align=center;verticalAlign=middle;resizable=0;points=[];" parent="xGLVZvJScgZVIf4xpDQf-48" vertex="1" connectable="0">
          <mxGeometry x="0.0631" y="-3" relative="1" as="geometry">
            <mxPoint x="-7" y="-4" as="offset" />
          </mxGeometry>
        </mxCell>
        <mxCell id="xGLVZvJScgZVIf4xpDQf-52" value="" style="html=1;verticalAlign=bottom;labelBackgroundColor=none;endArrow=open;endFill=0;dashed=1;rounded=0;entryX=1.4;entryY=0.618;entryDx=0;entryDy=0;entryPerimeter=0;" parent="1" source="oFbbETFREsKXqKu5l48W-8" target="I0qwWz0K_f3R_PIbQ74B-28" edge="1">
          <mxGeometry width="160" relative="1" as="geometry">
            <mxPoint x="1550" y="-21" as="sourcePoint" />
            <mxPoint x="1125.5" y="-21" as="targetPoint" />
            <Array as="points">
              <mxPoint x="1180" y="-21" />
            </Array>
          </mxGeometry>
        </mxCell>
        <mxCell id="xGLVZvJScgZVIf4xpDQf-53" value="Список избранных каналов" style="edgeLabel;html=1;align=center;verticalAlign=middle;resizable=0;points=[];" parent="xGLVZvJScgZVIf4xpDQf-52" vertex="1" connectable="0">
          <mxGeometry x="0.0749" y="-3" relative="1" as="geometry">
            <mxPoint x="28" as="offset" />
          </mxGeometry>
        </mxCell>
        <mxCell id="xGLVZvJScgZVIf4xpDQf-54" value="" style="html=1;verticalAlign=bottom;labelBackgroundColor=none;endArrow=open;endFill=0;dashed=1;rounded=0;" parent="1" edge="1">
          <mxGeometry width="160" relative="1" as="geometry">
            <mxPoint x="1130" y="10" as="sourcePoint" />
            <mxPoint x="920" y="10" as="targetPoint" />
          </mxGeometry>
        </mxCell>
        <mxCell id="xGLVZvJScgZVIf4xpDQf-55" value="Список избранных каналов" style="edgeLabel;html=1;align=center;verticalAlign=middle;resizable=0;points=[];" parent="xGLVZvJScgZVIf4xpDQf-54" vertex="1" connectable="0">
          <mxGeometry x="-0.02" y="-4" relative="1" as="geometry">
            <mxPoint as="offset" />
          </mxGeometry>
        </mxCell>
        <mxCell id="xGLVZvJScgZVIf4xpDQf-58" value="" style="html=1;verticalAlign=bottom;labelBackgroundColor=none;endArrow=open;endFill=0;dashed=1;rounded=0;" parent="1" edge="1">
          <mxGeometry width="160" relative="1" as="geometry">
            <mxPoint x="1339.75" y="100" as="sourcePoint" />
            <mxPoint x="1130.25" y="100" as="targetPoint" />
          </mxGeometry>
        </mxCell>
        <mxCell id="xGLVZvJScgZVIf4xpDQf-59" value="Подтверждение удаления" style="edgeLabel;html=1;align=center;verticalAlign=middle;resizable=0;points=[];" parent="xGLVZvJScgZVIf4xpDQf-58" vertex="1" connectable="0">
          <mxGeometry x="0.0749" y="-3" relative="1" as="geometry">
            <mxPoint x="8" y="3" as="offset" />
          </mxGeometry>
        </mxCell>
        <mxCell id="oFbbETFREsKXqKu5l48W-4" value=":ТВ-каналы" style="shape=umlLifeline;perimeter=lifelinePerimeter;whiteSpace=wrap;html=1;container=1;collapsible=0;recursiveResize=0;outlineConnect=0;" parent="1" vertex="1">
          <mxGeometry x="1499" y="-1060" width="100" height="1180" as="geometry" />
        </mxCell>
        <mxCell id="I0qwWz0K_f3R_PIbQ74B-23" value="" style="rounded=0;whiteSpace=wrap;html=1;" parent="oFbbETFREsKXqKu5l48W-4" vertex="1">
          <mxGeometry x="45" y="628" width="10" height="70" as="geometry" />
        </mxCell>
        <mxCell id="oFbbETFREsKXqKu5l48W-8" value=":Пользователь&amp;nbsp;" style="shape=umlLifeline;perimeter=lifelinePerimeter;whiteSpace=wrap;html=1;container=1;collapsible=0;recursiveResize=0;outlineConnect=0;" parent="1" vertex="1">
          <mxGeometry x="1290" y="-1060" width="100" height="1180" as="geometry" />
        </mxCell>
        <mxCell id="xGLVZvJScgZVIf4xpDQf-22" style="edgeStyle=none;rounded=0;orthogonalLoop=1;jettySize=auto;html=1;endArrow=blockThin;endFill=1;" parent="oFbbETFREsKXqKu5l48W-8" edge="1">
          <mxGeometry relative="1" as="geometry">
            <mxPoint x="39.99999999999977" y="360" as="targetPoint" />
            <Array as="points">
              <mxPoint x="-31" y="360" />
            </Array>
            <mxPoint x="-160" y="360" as="sourcePoint" />
          </mxGeometry>
        </mxCell>
        <mxCell id="xGLVZvJScgZVIf4xpDQf-23" value="Проверка статуса подписки" style="edgeLabel;html=1;align=center;verticalAlign=middle;resizable=0;points=[];" parent="xGLVZvJScgZVIf4xpDQf-22" vertex="1" connectable="0">
          <mxGeometry x="0.0631" y="-3" relative="1" as="geometry">
            <mxPoint x="-7" y="-4" as="offset" />
          </mxGeometry>
        </mxCell>
        <mxCell id="I0qwWz0K_f3R_PIbQ74B-19" value="" style="rounded=0;whiteSpace=wrap;html=1;" parent="oFbbETFREsKXqKu5l48W-8" vertex="1">
          <mxGeometry x="45" y="90" width="10" height="180" as="geometry" />
        </mxCell>
        <mxCell id="I0qwWz0K_f3R_PIbQ74B-21" value="" style="rounded=0;whiteSpace=wrap;html=1;" parent="oFbbETFREsKXqKu5l48W-8" vertex="1">
          <mxGeometry x="45" y="350" width="10" height="150" as="geometry" />
        </mxCell>
        <mxCell id="I0qwWz0K_f3R_PIbQ74B-24" value="" style="rounded=0;whiteSpace=wrap;html=1;" parent="oFbbETFREsKXqKu5l48W-8" vertex="1">
          <mxGeometry x="45" y="860" width="10" height="50" as="geometry" />
        </mxCell>
        <mxCell id="I0qwWz0K_f3R_PIbQ74B-25" value="" style="rounded=0;whiteSpace=wrap;html=1;" parent="oFbbETFREsKXqKu5l48W-8" vertex="1">
          <mxGeometry x="45" y="990" width="10" height="60" as="geometry" />
        </mxCell>
        <mxCell id="I0qwWz0K_f3R_PIbQ74B-26" value="" style="rounded=0;whiteSpace=wrap;html=1;" parent="oFbbETFREsKXqKu5l48W-8" vertex="1">
          <mxGeometry x="45" y="1120" width="10" height="50" as="geometry" />
        </mxCell>
        <mxCell id="oFbbETFREsKXqKu5l48W-3" value="&lt;span style=&quot;background-color: rgb(255, 255, 255);&quot;&gt;Пользователь&lt;/span&gt;" style="shape=umlLifeline;participant=umlActor;perimeter=lifelinePerimeter;whiteSpace=wrap;html=1;container=1;collapsible=0;recursiveResize=0;verticalAlign=top;spacingTop=36;outlineConnect=0;" parent="1" vertex="1">
          <mxGeometry x="910" y="-1060" width="20" height="1200" as="geometry" />
        </mxCell>
        <mxCell id="I0qwWz0K_f3R_PIbQ74B-17" value="" style="rounded=0;whiteSpace=wrap;html=1;" parent="oFbbETFREsKXqKu5l48W-3" vertex="1">
          <mxGeometry x="5" y="60" width="10" height="1120" as="geometry" />
        </mxCell>
        <mxCell id="oFbbETFREsKXqKu5l48W-7" value="Otium:UI&amp;nbsp;" style="shape=umlLifeline;perimeter=lifelinePerimeter;whiteSpace=wrap;html=1;container=1;collapsible=0;recursiveResize=0;outlineConnect=0;" parent="1" vertex="1">
          <mxGeometry x="1076" y="-1060" width="100" height="1190" as="geometry" />
        </mxCell>
        <mxCell id="xGLVZvJScgZVIf4xpDQf-19" style="edgeStyle=none;rounded=0;orthogonalLoop=1;jettySize=auto;html=1;endArrow=blockThin;endFill=1;" parent="oFbbETFREsKXqKu5l48W-7" edge="1">
          <mxGeometry relative="1" as="geometry">
            <mxPoint x="43.99999999999977" y="340" as="targetPoint" />
            <Array as="points">
              <mxPoint x="-27" y="340" />
            </Array>
            <mxPoint x="-156" y="340" as="sourcePoint" />
          </mxGeometry>
        </mxCell>
        <mxCell id="xGLVZvJScgZVIf4xpDQf-20" value="Проверка данных подписки" style="edgeLabel;html=1;align=center;verticalAlign=middle;resizable=0;points=[];" parent="xGLVZvJScgZVIf4xpDQf-19" vertex="1" connectable="0">
          <mxGeometry x="0.0631" y="-3" relative="1" as="geometry">
            <mxPoint x="-7" y="-4" as="offset" />
          </mxGeometry>
        </mxCell>
        <mxCell id="xGLVZvJScgZVIf4xpDQf-30" value="" style="html=1;verticalAlign=bottom;labelBackgroundColor=none;endArrow=open;endFill=0;dashed=1;rounded=0;" parent="oFbbETFREsKXqKu5l48W-7" edge="1">
          <mxGeometry width="160" relative="1" as="geometry">
            <mxPoint x="49" y="520" as="sourcePoint" />
            <mxPoint x="-146" y="520" as="targetPoint" />
          </mxGeometry>
        </mxCell>
        <mxCell id="xGLVZvJScgZVIf4xpDQf-31" value="Доступ к фильмам закрыт" style="edgeLabel;html=1;align=center;verticalAlign=middle;resizable=0;points=[];" parent="xGLVZvJScgZVIf4xpDQf-30" vertex="1" connectable="0">
          <mxGeometry x="-0.02" y="-4" relative="1" as="geometry">
            <mxPoint as="offset" />
          </mxGeometry>
        </mxCell>
        <mxCell id="xGLVZvJScgZVIf4xpDQf-40" value="" style="html=1;verticalAlign=bottom;labelBackgroundColor=none;endArrow=open;endFill=0;dashed=1;rounded=0;" parent="oFbbETFREsKXqKu5l48W-7" target="oFbbETFREsKXqKu5l48W-3" edge="1">
          <mxGeometry width="160" relative="1" as="geometry">
            <mxPoint x="54" y="730" as="sourcePoint" />
            <mxPoint x="-146" y="730" as="targetPoint" />
          </mxGeometry>
        </mxCell>
        <mxCell id="xGLVZvJScgZVIf4xpDQf-41" value="Инфо о канале" style="edgeLabel;html=1;align=center;verticalAlign=middle;resizable=0;points=[];" parent="xGLVZvJScgZVIf4xpDQf-40" vertex="1" connectable="0">
          <mxGeometry x="-0.02" y="-4" relative="1" as="geometry">
            <mxPoint as="offset" />
          </mxGeometry>
        </mxCell>
        <mxCell id="I0qwWz0K_f3R_PIbQ74B-18" value="" style="rounded=0;whiteSpace=wrap;html=1;" parent="oFbbETFREsKXqKu5l48W-7" vertex="1">
          <mxGeometry x="45" y="60" width="10" height="230" as="geometry" />
        </mxCell>
        <mxCell id="I0qwWz0K_f3R_PIbQ74B-20" value="" style="rounded=0;whiteSpace=wrap;html=1;" parent="oFbbETFREsKXqKu5l48W-7" vertex="1">
          <mxGeometry x="45" y="330" width="10" height="200" as="geometry" />
        </mxCell>
        <mxCell id="I0qwWz0K_f3R_PIbQ74B-22" value="" style="rounded=0;whiteSpace=wrap;html=1;" parent="oFbbETFREsKXqKu5l48W-7" vertex="1">
          <mxGeometry x="45" y="590" width="10" height="150" as="geometry" />
        </mxCell>
        <mxCell id="I0qwWz0K_f3R_PIbQ74B-27" value="" style="rounded=0;whiteSpace=wrap;html=1;" parent="oFbbETFREsKXqKu5l48W-7" vertex="1">
          <mxGeometry x="45" y="840" width="10" height="80" as="geometry" />
        </mxCell>
        <mxCell id="I0qwWz0K_f3R_PIbQ74B-28" value="" style="rounded=0;whiteSpace=wrap;html=1;" parent="oFbbETFREsKXqKu5l48W-7" vertex="1">
          <mxGeometry x="45" y="970" width="10" height="110" as="geometry" />
        </mxCell>
        <mxCell id="I0qwWz0K_f3R_PIbQ74B-29" value="" style="rounded=0;whiteSpace=wrap;html=1;" parent="oFbbETFREsKXqKu5l48W-7" vertex="1">
          <mxGeometry x="45" y="1110" width="10" height="70" as="geometry" />
        </mxCell>
        <mxCell id="xGLVZvJScgZVIf4xpDQf-56" style="edgeStyle=none;rounded=0;orthogonalLoop=1;jettySize=auto;html=1;endArrow=blockThin;endFill=1;" parent="oFbbETFREsKXqKu5l48W-7" edge="1">
          <mxGeometry relative="1" as="geometry">
            <mxPoint x="54" y="1120" as="targetPoint" />
            <Array as="points">
              <mxPoint x="-27" y="1120" />
            </Array>
            <mxPoint x="-156" y="1120" as="sourcePoint" />
          </mxGeometry>
        </mxCell>
        <mxCell id="xGLVZvJScgZVIf4xpDQf-57" value="Удаление канала из избранного" style="edgeLabel;html=1;align=center;verticalAlign=middle;resizable=0;points=[];" parent="xGLVZvJScgZVIf4xpDQf-56" vertex="1" connectable="0">
          <mxGeometry x="0.0631" y="-3" relative="1" as="geometry">
            <mxPoint x="-7" y="-4" as="offset" />
          </mxGeometry>
        </mxCell>
        <mxCell id="I0qwWz0K_f3R_PIbQ74B-2" value="" style="endArrow=none;html=1;rounded=0;entryX=1.002;entryY=0.35;entryDx=0;entryDy=0;entryPerimeter=0;exitX=0;exitY=0.35;exitDx=0;exitDy=0;exitPerimeter=0;" parent="1" source="xGLVZvJScgZVIf4xpDQf-2" target="xGLVZvJScgZVIf4xpDQf-2" edge="1">
          <mxGeometry width="50" height="50" relative="1" as="geometry">
            <mxPoint x="790" y="-838" as="sourcePoint" />
            <mxPoint x="840" y="-888" as="targetPoint" />
          </mxGeometry>
        </mxCell>
        <mxCell id="I0qwWz0K_f3R_PIbQ74B-3" value="[иначе]" style="text;html=1;align=center;verticalAlign=middle;resizable=0;points=[];autosize=1;strokeColor=none;fillColor=none;" parent="1" vertex="1">
          <mxGeometry x="810" y="-832" width="60" height="30" as="geometry" />
        </mxCell>
        <mxCell id="I0qwWz0K_f3R_PIbQ74B-7" value="" style="html=1;verticalAlign=bottom;labelBackgroundColor=none;endArrow=open;endFill=0;dashed=1;rounded=0;" parent="1" edge="1">
          <mxGeometry width="160" relative="1" as="geometry">
            <mxPoint x="1340" y="-160" as="sourcePoint" />
            <mxPoint x="1130" y="-160" as="targetPoint" />
          </mxGeometry>
        </mxCell>
        <mxCell id="I0qwWz0K_f3R_PIbQ74B-8" value="Подтверждение добавления" style="edgeLabel;html=1;align=center;verticalAlign=middle;resizable=0;points=[];" parent="I0qwWz0K_f3R_PIbQ74B-7" vertex="1" connectable="0">
          <mxGeometry x="-0.02" y="-4" relative="1" as="geometry">
            <mxPoint as="offset" />
          </mxGeometry>
        </mxCell>
        <mxCell id="I0qwWz0K_f3R_PIbQ74B-9" style="edgeStyle=none;rounded=0;orthogonalLoop=1;jettySize=auto;html=1;endArrow=blockThin;endFill=1;" parent="1" edge="1">
          <mxGeometry relative="1" as="geometry">
            <mxPoint x="1338" y="-190" as="targetPoint" />
            <Array as="points">
              <mxPoint x="1261" y="-190" />
            </Array>
            <mxPoint x="1132" y="-190" as="sourcePoint" />
          </mxGeometry>
        </mxCell>
        <mxCell id="I0qwWz0K_f3R_PIbQ74B-10" value="Добавление канала в избранное" style="edgeLabel;html=1;align=center;verticalAlign=middle;resizable=0;points=[];" parent="I0qwWz0K_f3R_PIbQ74B-9" vertex="1" connectable="0">
          <mxGeometry x="0.0631" y="-3" relative="1" as="geometry">
            <mxPoint x="-7" y="-4" as="offset" />
          </mxGeometry>
        </mxCell>
        <mxCell id="I0qwWz0K_f3R_PIbQ74B-11" value="" style="html=1;verticalAlign=bottom;labelBackgroundColor=none;endArrow=open;endFill=0;dashed=1;rounded=0;" parent="1" edge="1">
          <mxGeometry width="160" relative="1" as="geometry">
            <mxPoint x="1120" y="-150" as="sourcePoint" />
            <mxPoint x="920" y="-150" as="targetPoint" />
          </mxGeometry>
        </mxCell>
        <mxCell id="I0qwWz0K_f3R_PIbQ74B-12" value="Подтверждение добавления" style="edgeLabel;html=1;align=center;verticalAlign=middle;resizable=0;points=[];" parent="I0qwWz0K_f3R_PIbQ74B-11" vertex="1" connectable="0">
          <mxGeometry x="-0.02" y="-4" relative="1" as="geometry">
            <mxPoint as="offset" />
          </mxGeometry>
        </mxCell>
        <mxCell id="I0qwWz0K_f3R_PIbQ74B-13" style="edgeStyle=none;rounded=0;orthogonalLoop=1;jettySize=auto;html=1;endArrow=blockThin;endFill=1;" parent="1" edge="1">
          <mxGeometry relative="1" as="geometry">
            <mxPoint x="1340" y="70" as="targetPoint" />
            <Array as="points">
              <mxPoint x="1259" y="70" />
            </Array>
            <mxPoint x="1130" y="70" as="sourcePoint" />
          </mxGeometry>
        </mxCell>
        <mxCell id="I0qwWz0K_f3R_PIbQ74B-14" value="Удаление канала из избранного" style="edgeLabel;html=1;align=center;verticalAlign=middle;resizable=0;points=[];" parent="I0qwWz0K_f3R_PIbQ74B-13" vertex="1" connectable="0">
          <mxGeometry x="0.0631" y="-3" relative="1" as="geometry">
            <mxPoint x="-7" y="-4" as="offset" />
          </mxGeometry>
        </mxCell>
        <mxCell id="I0qwWz0K_f3R_PIbQ74B-15" value="" style="html=1;verticalAlign=bottom;labelBackgroundColor=none;endArrow=open;endFill=0;dashed=1;rounded=0;" parent="1" edge="1">
          <mxGeometry width="160" relative="1" as="geometry">
            <mxPoint x="1129.5" y="110" as="sourcePoint" />
            <mxPoint x="920" y="110" as="targetPoint" />
          </mxGeometry>
        </mxCell>
        <mxCell id="I0qwWz0K_f3R_PIbQ74B-16" value="Подтверждение удаления" style="edgeLabel;html=1;align=center;verticalAlign=middle;resizable=0;points=[];" parent="I0qwWz0K_f3R_PIbQ74B-15" vertex="1" connectable="0">
          <mxGeometry x="0.0749" y="-3" relative="1" as="geometry">
            <mxPoint x="8" y="3" as="offset" />
          </mxGeometry>
        </mxCell>
        <mxCell id="xGLVZvJScgZVIf4xpDQf-50" style="edgeStyle=none;rounded=0;orthogonalLoop=1;jettySize=auto;html=1;endArrow=blockThin;endFill=1;" parent="1" target="oFbbETFREsKXqKu5l48W-8" edge="1">
          <mxGeometry relative="1" as="geometry">
            <mxPoint x="1329.9999999999998" y="-60" as="targetPoint" />
            <Array as="points">
              <mxPoint x="1259" y="-60" />
            </Array>
            <mxPoint x="1130" y="-60" as="sourcePoint" />
          </mxGeometry>
        </mxCell>
        <mxCell id="xGLVZvJScgZVIf4xpDQf-51" value="Запрос избранных &lt;br&gt;каналов пользователя" style="edgeLabel;html=1;align=center;verticalAlign=middle;resizable=0;points=[];" parent="xGLVZvJScgZVIf4xpDQf-50" vertex="1" connectable="0">
          <mxGeometry x="0.0631" y="-3" relative="1" as="geometry">
            <mxPoint x="-5" y="-13" as="offset" />
          </mxGeometry>
        </mxCell>
        <mxCell id="I0qwWz0K_f3R_PIbQ74B-30" value="" style="endArrow=none;html=1;rounded=0;exitX=-0.004;exitY=0.45;exitDx=0;exitDy=0;exitPerimeter=0;entryX=1.001;entryY=0.436;entryDx=0;entryDy=0;entryPerimeter=0;" parent="1" source="xGLVZvJScgZVIf4xpDQf-15" target="xGLVZvJScgZVIf4xpDQf-15" edge="1">
          <mxGeometry width="50" height="50" relative="1" as="geometry">
            <mxPoint x="1190" y="-520" as="sourcePoint" />
            <mxPoint x="1240" y="-570" as="targetPoint" />
            <Array as="points">
              <mxPoint x="1220" y="-600" />
            </Array>
          </mxGeometry>
        </mxCell>
      </root>
    </mxGraphModel>
  </diagram>
</mxfile>
